<svg width="1200" height="620" viewBox="0 0 1200 620" fill="none" xmlns="http://www.w3.org/2000/svg">
  <defs>
    <linearGradient id="panel" x1="80" y1="80" x2="1120" y2="540" gradientUnits="userSpaceOnUse">
      <stop stop-color="#F7FBFF"/>
      <stop offset="1" stop-color="#F6FFF8"/>
    </linearGradient>
    <linearGradient id="core" x1="470" y1="190" x2="730" y2="430" gradientUnits="userSpaceOnUse">
      <stop stop-color="#0E7C86"/>
      <stop offset="1" stop-color="#2A9D55"/>
    </linearGradient>
    <filter id="shadow" x="40" y="40" width="1120" height="540" filterUnits="userSpaceOnUse" color-interpolation-filters="sRGB">
      <feDropShadow dx="0" dy="18" stdDeviation="22" flood-color="#1F2937" flood-opacity="0.16"/>
    </filter>
    <style>
      .title{font:700 52px Arial, sans-serif;fill:#0F172A}
      .subtitle{font:400 22px Arial, sans-serif;fill:#475569}
      .label{font:700 20px Arial, sans-serif;fill:#0F172A}
      .small{font:400 16px Arial, sans-serif;fill:#475569}
      .mono{font:600 17px Consolas, monospace;fill:#0F766E}
      .node{font:700 18px Arial, sans-serif;fill:#0F172A}
    </style>
  </defs>
  <rect width="1200" height="620" rx="34" fill="#FFFFFF"/>
  <g filter="url(#shadow)">
    <rect x="70" y="70" width="1060" height="480" rx="28" fill="url(#panel)" stroke="#D8E2EA"/>
  </g>
  <text x="120" y="145" class="title">CAD Agent Skill</text>
  <text x="122" y="184" class="subtitle">A privacy-first workflow layer for agent-assisted CAD planning.</text>

  <rect x="120" y="245" width="245" height="170" rx="18" fill="#FFFFFF" stroke="#CBD5E1"/>
  <text x="148" y="288" class="label">Text request</text>
  <text x="148" y="322" class="small">Natural-language design intent</text>
  <text x="148" y="358" class="mono">"Create a modular</text>
  <text x="148" y="384" class="mono">industrial panel..."</text>

  <path d="M386 330 H470" stroke="#94A3B8" stroke-width="4" stroke-linecap="round"/>
  <path d="M458 318 L474 330 L458 342" stroke="#94A3B8" stroke-width="4" stroke-linecap="round" stroke-linejoin="round"/>

  <rect x="475" y="220" width="250" height="220" rx="26" fill="url(#core)"/>
  <text x="520" y="284" fill="#FFFFFF" style="font:700 31px Arial, sans-serif">Workflow</text>
  <text x="544" y="324" fill="#DDF8EE" style="font:700 31px Arial, sans-serif">Skill</text>
  <rect x="520" y="355" width="160" height="38" rx="19" fill="#FFFFFF" fill-opacity="0.18" stroke="#E5FFF4" stroke-opacity="0.45"/>
  <text x="555" y="381" fill="#FFFFFF" style="font:700 16px Arial, sans-serif">agent guardrails</text>

  <path d="M730 330 H814" stroke="#94A3B8" stroke-width="4" stroke-linecap="round"/>
  <path d="M802 318 L818 330 L802 342" stroke="#94A3B8" stroke-width="4" stroke-linecap="round" stroke-linejoin="round"/>

  <rect x="835" y="245" width="245" height="170" rx="18" fill="#FFFFFF" stroke="#CBD5E1"/>
  <text x="863" y="288" class="label">Validated handoff</text>
  <text x="863" y="322" class="small">Structured CAD artifacts</text>
  <path d="M875 360 h120 v36 h-120 z" stroke="#0E7C86" stroke-width="3" fill="#E8FAF5"/>
  <path d="M904 360 v36M935 360 v36M966 360 v36" stroke="#0E7C86" stroke-width="2"/>
  <circle cx="1018" cy="378" r="17" fill="#2A9D55"/>
  <path d="M1009 378 l6 6 l13 -15" stroke="#FFFFFF" stroke-width="4" stroke-linecap="round" stroke-linejoin="round"/>

  <g transform="translate(158 470)">
    <rect x="0" y="0" width="130" height="42" rx="21" fill="#E0F2FE"/><text x="33" y="27" class="node">CAD IR</text>
    <rect x="172" y="0" width="130" height="42" rx="21" fill="#ECFDF5"/><text x="198" y="27" class="node">Catalog</text>
    <rect x="344" y="0" width="130" height="42" rx="21" fill="#FFF7ED"/><text x="367" y="27" class="node">Plan</text>
    <rect x="516" y="0" width="130" height="42" rx="21" fill="#F1F5F9"/><text x="539" y="27" class="node">Graph</text>
    <rect x="688" y="0" width="150" height="42" rx="21" fill="#F0FDF4"/><text x="717" y="27" class="node">Validate</text>
  </g>
</svg>
